<?xml version="1.0" encoding="utf-8"?>
<!-- Generator: Adobe Illustrator 24.0.2, SVG Export Plug-In . SVG Version: 6.00 Build 0)  -->
<svg version="1.1" id="Capa_1" xmlns="http://www.w3.org/2000/svg" xmlns:xlink="http://www.w3.org/1999/xlink" x="0px" y="0px"
	 viewBox="0 0 244.4 238" style="enable-background:new 0 0 244.4 238;" xml:space="preserve">
<path d="M123.2,0c9.5,9.9,18.6,19.2,27.3,28.8c12.9,14.2,13.1,37.5,0,51.4c-14.4,15.2-29.7,29.7-44.5,44.5
	c-14.4,14.4-28.8,28.7-43.1,43.3c-1.4,1.4-2.2,3.9-2.3,5.9c-0.3,7.6-0.1,15.2-0.1,23.2c-10.7,0-21.1,0-31.9,0
	c-0.1-1.2-0.2-2.6-0.2-3.9c0-9.7-0.1-19.5,0.1-29.2c0-1.7,0.9-3.9,2.1-5.1C60.2,128.8,90.1,99,120,69.2c1.9-1.9,3.8-3.6,5.7-5.4
	c3.6-3.7,4.3-8.3,2.2-12.7c-2.7-5.4-7.4-6.5-11.8-2.4c-5,4.7-9.7,9.7-14.6,14.6C75,89.6,48.6,116,22.1,142.3
	c-0.8,0.8-1.6,1.5-1.9,1.7c-7.1-6.8-14.1-13.4-20.2-19.2C40.8,83.5,81.4,42.3,123.2,0z"/>
<path d="M124.3,238c-9.8-9.6-19.9-18.6-28.8-28.7c-12.8-14.5-12-37.5,1.5-51.4c16.2-16.7,32.9-32.8,49.4-49.2
	c12.4-12.3,24.8-24.7,37.1-37.1c1.1-1.2,1.8-3.3,1.8-5c0.2-8.1,0.1-16.2,0.1-24.6c10.8,0,21.3,0,32.4,0c0,6.9,0,13.7,0,20.6
	c-0.1,5.4,1.1,11.3-0.8,15.9c-1.8,4.5-6.9,7.7-10.6,11.4c-27.5,27.4-55.1,54.8-82.6,82.3c-2.5,2.5-4.6,5.7-5.8,8.9
	c-1.5,4.1,1.3,9.3,4.9,11.2c3.3,1.7,6.6,0.6,10.2-3.2c2.9-3.1,5.7-6.3,8.7-9.3c27.1-27.6,54.3-55.3,80.9-82.4
	c7.4,6.9,14.6,13.7,21.8,20.5C204.2,158.1,164.3,198,124.3,238z"/>
</svg>
